#N canvas -474 477 450 336 10;
#X obj 53 244 dac~;
#N canvas -581 794 450 300 input_stage 0;
#X obj 18 61 trigger float float bang;
#X obj 18 21 key;
#X obj 18 118 outlet float;
#X obj 133 119 outlet float;
#X obj 285 125 outlet bang;
#X connect 0 0 2 0;
#X connect 0 1 3 0;
#X connect 0 2 4 0;
#X connect 1 0 0 0;
#X restore 50 27 pd input_stage;
#N canvas 1949 926 450 300 amp_stage 1;
#X obj 68 29 inlet~ audio;
#X obj 265 27 inlet bang;
#X obj 69 197 outlet~ audio;
#X obj 70 144 *~;
#X obj 122 108 vline~;
#X msg 255 70 1 150 \, 0.9 150 \, 0 1000 500;
#X connect 0 0 3 0;
#X connect 1 0 5 0;
#X connect 3 0 2 0;
#X connect 4 0 3 1;
#X connect 5 0 4 0;
#X restore 51 176 pd amp_stage;
#N canvas -1012 816 450 300 oscillator_stage 0;
#X obj 56 80 mtof;
#X obj 56 212 *~ 0.5;
#X obj 56 13 inlet float;
#X obj 58 258 outlet~ audio;
#X obj 58 144 osc~;
#X obj 137 145 osc~;
#X obj 137 106 * 0.499;
#X connect 0 0 4 0;
#X connect 0 0 6 0;
#X connect 1 0 3 0;
#X connect 2 0 0 0;
#X connect 4 0 1 0;
#X connect 5 0 1 0;
#X connect 6 0 5 0;
#X restore 48 77 pd oscillator_stage;
#N canvas 1981 536 450 300 filter_stage 1;
#X obj -227 70 mtof;
#X obj -224 138 pack 0 300;
#X obj -224 179 line~;
#X obj -351 217 vcf~ 220 3;
#X obj -224 96 * 1.5;
#X floatatom -213 213 5 0 0 0 - - -;
#X obj -352 22 inlet~ audio;
#X obj -228 26 inlet float;
#X obj -349 266 outlet~ audio;
#X connect 0 0 4 0;
#X connect 1 0 2 0;
#X connect 2 0 3 1;
#X connect 3 0 8 0;
#X connect 4 0 1 0;
#X connect 5 0 3 2;
#X connect 6 0 3 0;
#X connect 7 0 0 0;
#X restore 47 133 pd filter_stage;
#X connect 1 0 3 0;
#X connect 1 1 4 1;
#X connect 1 2 2 1;
#X connect 2 0 0 0;
#X connect 2 0 0 1;
#X connect 3 0 4 0;
#X connect 4 0 2 0;
