#N canvas -976 911 450 300 10;
#X obj 58 19 inlet~ audio;
#X obj 255 17 inlet bang;
#X obj 168 455 1 150 \, 0.9 150 150 \, 0 1000 500;
#X obj 29 511 *~;
#X obj 122 479 vline~;
#X obj 178 465 1 150 \, 0.9 150 150 \, 0 1000 500;
#X obj 39 521 *~;
#X obj 132 489 vline~;
#X obj 188 475 1 150 \, 0.9 150 150 \, 0 1000 500;
#X obj 49 531 *~;
#X obj 142 499 vline~;
#X obj 168 455 1 150 \, 0.9 150 150 \, 0 1000 500;
#X obj 29 511 *~;
#X obj 122 479 vline~;
#X obj 178 465 1 150 \, 0.9 150 150 \, 0 1000 500;
#X obj 39 521 *~;
#X obj 132 489 vline~;
#X obj 188 475 1 150 \, 0.9 150 150 \, 0 1000 500;
#X obj 49 531 *~;
#X obj 142 499 vline~;
#X obj 59 187 outlet~ audio;
#X obj 60 134 *~;
#X obj 112 98 vline~;
#X msg 245 60 1 150 \, 0.9 150 \, 0 1000 500;
#X connect 0 0 21 0;
#X connect 1 0 23 0;
#X connect 2 0 4 0;
#X connect 4 0 3 1;
#X connect 5 0 7 0;
#X connect 7 0 6 1;
#X connect 8 0 10 0;
#X connect 10 0 9 1;
#X connect 11 0 13 0;
#X connect 13 0 12 1;
#X connect 14 0 16 0;
#X connect 16 0 15 1;
#X connect 17 0 19 0;
#X connect 19 0 18 1;
#X connect 21 0 20 0;
#X connect 22 0 21 1;
#X connect 23 0 22 0;
