#N canvas 1180 239 450 658 10;
#X obj 57 58 bng 15 250 50 0 empty empty empty 17 7 0 10 -262144 -1
-1;
#X floatatom 134 301 5 0 0 0 - - -;
#X msg 122 93 0;
#X obj 51 132 f;
#X obj 144 189 + 1;
#X obj 139 239 mod 7;
#X obj 30 181 print;
#X connect 0 0 3 0;
#X connect 2 0 3 1;
#X connect 3 0 4 0;
#X connect 3 0 6 0;
#X connect 4 0 5 0;
#X connect 4 0 3 1;
#X connect 5 0 1 0;
