#N canvas -474 432 450 710 10;
#X obj 18 100 mtof;
#X obj 99 126 * 0.99;
#X obj 18 172 phasor~;
#X obj 99 165 phasor~;
#X obj 18 232 *~ 0.5;
#X obj 88 237 mtof;
#X obj 88 322 pack 0 300;
#X obj 88 363 line~;
#X obj 18 422 vcf~ 220 3;
#X obj 168 455 1 150 \, 0.9 150 150 \, 0 1000 500;
#X obj 29 511 *~;
#X obj 122 479 vline~;
#X obj 30 564 dac~;
#X obj 88 280 * 1.5;
#X floatatom 99 397 5 0 0 0 - - -;
#N canvas 0 497 450 300 input_stage 1;
#X obj 18 61 trigger float float bang;
#X obj 18 21 key;
#X obj 15 120 outlet float;
#X obj 133 119 outlet float;
#X obj 285 125 outlet bang;
#X connect 0 0 2 0;
#X connect 0 1 3 0;
#X connect 0 2 4 0;
#X connect 1 0 0 0;
#X restore 13 35 pd input_stage;
#X connect 0 0 1 0;
#X connect 0 0 2 0;
#X connect 1 0 3 0;
#X connect 2 0 4 0;
#X connect 3 0 4 0;
#X connect 4 0 8 0;
#X connect 5 0 13 0;
#X connect 6 0 7 0;
#X connect 7 0 8 1;
#X connect 8 0 10 0;
#X connect 9 0 11 0;
#X connect 10 0 12 0;
#X connect 10 0 12 1;
#X connect 11 0 10 1;
#X connect 13 0 6 0;
#X connect 14 0 8 2;
