#N canvas 1117 103 742 965 10;
#X obj 34 -168 osc~ 440;
#X obj 37 30 dac~;
#X floatatom 31 -257 5 0 0 0 - - -;
#X obj 33 -30 *~ 0;
#X msg 66 -95 0;
#X msg 112 -94 1;
#X floatatom 200 -34 5 0 0 0 - - -;
#X floatatom 271 -31 5 0 0 0 - - -;
#X obj 200 -93 * 3;
#X obj 271 -94 * 4;
#X obj 197 -263 bng 15 250 50 0 empty empty empty 17 7 0 10 -262144
-1 -1;
#X msg 195 -145 3;
#X msg 265 -144 5;
#X obj 193 -202 trigger bang bang;
#X floatatom 201 72 5 0 0 0 - - -;
#X obj 203 18 +;
#X obj 287 19 print;
#X obj 397 -260 bng 15 250 50 0 empty empty empty 17 7 0 10 -262144
-1 -1;
#X obj 400 -202 trigger bang bang;
#X msg 402 -146 3;
#X msg 498 -145 5;
#X obj 403 -96 * 3;
#X obj 498 -95 * 4;
#X obj 403 -18 print left;
#X obj 500 -18 print right;
#X obj 77 120 bng 15 250 50 0 empty empty empty 17 7 0 10 -262144 -1
-1;
#X obj 145 121 bng 15 250 50 0 empty empty empty 17 7 0 10 -262144
-1 -1;
#X msg 30 187 440;
#X msg 106 185 500;
#X obj 30 240 osc~;
#X msg 81 305 0.5;
#X msg 141 304 1;
#X obj 48 339 *~;
#X obj 49 407 dac~;
#X floatatom 347 115 5 0 0 0 - - -;
#X obj 314 189 * 400;
#X obj 316 239 osc~;
#X obj 387 226 print a;
#X obj 482 194 * 600;
#X obj 491 237 osc~;
#X obj 550 226 print b;
#X obj 322 320 *~ 0.5;
#X obj 328 386 dac~;
#X obj 209 129 bng 15 250 50 0 empty empty empty 17 7 0 10 -262144
-1 -1;
#X msg 212 298 0;
#X obj 474 293 tgl 15 0 empty empty empty 17 7 0 10 -262144 -1 -1 0
1;
#X floatatom 53 457 5 0 0 0 - - -;
#X floatatom 56 546 5 0 0 0 - - -;
#X floatatom 128 545 5 0 0 0 - - -;
#X obj 54 506 moses 10;
#X obj 255 445 bng 15 250 50 0 empty empty empty 17 7 0 10 -262144
-1 -1;
#X floatatom 263 537 5 0 0 0 - - -;
#X obj 258 489 expr (4*(5-2))/4;
#X floatatom 436 447 5 0 0 0 - - -;
#X floatatom 579 452 5 0 0 0 - - -;
#X floatatom 438 553 5 0 0 0 - - -;
#X obj 435 499 expr ($f1*(5-2))/$f2;
#X connect 0 0 3 0;
#X connect 2 0 0 0;
#X connect 3 0 1 0;
#X connect 3 0 1 1;
#X connect 4 0 3 1;
#X connect 5 0 3 1;
#X connect 6 0 15 0;
#X connect 7 0 15 1;
#X connect 7 0 16 0;
#X connect 8 0 6 0;
#X connect 9 0 7 0;
#X connect 10 0 13 0;
#X connect 11 0 8 0;
#X connect 12 0 9 0;
#X connect 13 0 11 0;
#X connect 13 1 12 0;
#X connect 15 0 14 0;
#X connect 17 0 18 0;
#X connect 18 0 19 0;
#X connect 18 1 20 0;
#X connect 19 0 21 0;
#X connect 20 0 22 0;
#X connect 21 0 23 0;
#X connect 22 0 24 0;
#X connect 25 0 27 0;
#X connect 25 0 30 0;
#X connect 26 0 28 0;
#X connect 26 0 31 0;
#X connect 27 0 29 0;
#X connect 28 0 29 0;
#X connect 29 0 32 0;
#X connect 30 0 32 1;
#X connect 31 0 32 1;
#X connect 32 0 33 0;
#X connect 32 0 33 1;
#X connect 34 0 35 0;
#X connect 34 0 38 0;
#X connect 35 0 36 0;
#X connect 35 0 37 0;
#X connect 36 0 41 0;
#X connect 38 0 39 0;
#X connect 38 0 40 0;
#X connect 39 0 41 0;
#X connect 41 0 42 0;
#X connect 41 0 42 1;
#X connect 43 0 44 0;
#X connect 44 0 32 1;
#X connect 45 0 41 1;
#X connect 46 0 49 0;
#X connect 49 0 47 0;
#X connect 49 1 48 0;
#X connect 50 0 52 0;
#X connect 52 0 51 0;
#X connect 53 0 56 0;
#X connect 54 0 56 1;
#X connect 56 0 55 0;
