#N canvas 1236 312 554 459 10;
#X obj 41 -70 osc~ 440;
#X obj 44 128 dac~;
#X floatatom 41 -148 5 0 0 0 - - -;
#X obj 40 68 *~ 0;
#X msg 73 3 0;
#X msg 119 4 1;
#X floatatom 238 41 5 0 0 0 - - -;
#X floatatom 309 44 5 0 0 0 - - -;
#X obj 238 -18 * 3;
#X obj 309 -19 * 4;
#X obj 235 -188 bng 15 250 50 0 empty empty empty 17 7 0 10 -262144
-1 -1;
#X msg 233 -70 3;
#X msg 303 -69 5;
#X obj 231 -127 trigger bang bang;
#X floatatom 239 147 5 0 0 0 - - -;
#X obj 241 93 +;
#X obj 325 94 print;
#X connect 0 0 3 0;
#X connect 2 0 0 0;
#X connect 3 0 1 0;
#X connect 3 0 1 1;
#X connect 4 0 3 1;
#X connect 5 0 3 1;
#X connect 6 0 15 0;
#X connect 7 0 15 1;
#X connect 7 0 16 0;
#X connect 8 0 6 0;
#X connect 9 0 7 0;
#X connect 10 0 13 0;
#X connect 11 0 8 0;
#X connect 12 0 9 0;
#X connect 13 0 11 0;
#X connect 13 1 12 0;
#X connect 15 0 14 0;
