#N canvas -496 438 450 678 10;
#X obj 22 24 notein 1;
#X obj 21 76 mtof;
#X obj 23 138 osc~;
#X obj 67 91 / 127;
#X obj 70 154 pack 0 50;
#X obj 70 218 line~;
#X obj 22 347 dac~;
#X obj 21 261 *~;
#X floatatom 121 125 5 0 0 0 - - -;
#X connect 0 0 1 0;
#X connect 0 1 3 0;
#X connect 1 0 2 0;
#X connect 2 0 7 0;
#X connect 3 0 4 0;
#X connect 4 0 5 0;
#X connect 5 0 7 1;
#X connect 7 0 6 0;
#X connect 7 0 6 1;
#X connect 8 0 4 1;
