#N canvas 0 442 450 417 10;
#X obj 40 24 notein;
#X obj 40 60 stripnote;
#X obj 40 97 mtof;
#X obj 40 130 osc~ 0;
#X obj 39 166 *~ 0.1;
#X obj 40 200 dac~;
#X obj 441 -11 nbx 5 14 -1e+037 1e+037 0 0 empty empty empty 0 -8 0
10 -262144 -1 -1 0 256;
#X connect 0 0 1 0;
#X connect 0 1 1 1;
#X connect 1 0 2 0;
#X connect 2 0 3 0;
#X connect 3 0 4 0;
#X connect 4 0 5 0;
#X connect 4 0 5 1;
