#N canvas 0 442 450 417 10;
#X obj 40 200 dac~;
#X obj 441 -11 nbx 5 14 -1e+037 1e+037 0 0 empty empty empty 0 -8 0
10 -262144 -1 -1 0 256;
#X obj 42 126 osc~ 220;
#X msg 396 568 \; pd dsp 1 \;;
#X msg 323 568 \; pd dsp 0 \;;
#X msg 406 578 \; pd dsp 1 \;;
#X msg 333 578 \; pd dsp 0 \;;
#X msg 154 167 \; pd dsp 1 \;;
#X obj 153 123 loadbang;
#X connect 2 0 0 0;
#X connect 2 0 0 1;
#X connect 8 0 7 0;
